<svg width="53" height="14" viewBox="0 0 53 14" fill="none" xmlns="http://www.w3.org/2000/svg">
<rect x="0.25" y="0.25" width="52.5" height="13.5" rx="6.75" fill="#7B61FF" fill-opacity="0.12"/>
<rect x="0.25" y="0.25" width="52.5" height="13.5" rx="6.75" stroke="#7B61FF" stroke-width="0.5"/>
<path d="M12.2891 10L11.7305 8.41406H9.54688L8.98828 10H8L10.125 4.26562H11.1641L13.2852 10H12.2891ZM11.4883 7.60938L10.9453 6.04688C10.9245 5.97917 10.8945 5.88411 10.8555 5.76172C10.8164 5.63672 10.7773 5.51042 10.7383 5.38281C10.6992 5.2526 10.6667 5.14323 10.6406 5.05469C10.6146 5.16146 10.582 5.28125 10.543 5.41406C10.5065 5.54427 10.4701 5.66667 10.4336 5.78125C10.3997 5.89583 10.3737 5.98438 10.3555 6.04688L9.80859 7.60938H11.4883ZM15.7875 10.0781C15.3786 10.0781 15.0245 9.9987 14.725 9.83984C14.4255 9.68099 14.1951 9.4375 14.0336 9.10938C13.8721 8.78125 13.7914 8.36458 13.7914 7.85938C13.7914 7.33333 13.8799 6.90365 14.057 6.57031C14.2341 6.23698 14.4789 5.99089 14.7914 5.83203C15.1065 5.67318 15.4672 5.59375 15.8734 5.59375C16.1312 5.59375 16.3643 5.61979 16.5727 5.67188C16.7836 5.72135 16.962 5.78255 17.1078 5.85547L16.8344 6.58984C16.6755 6.52474 16.5128 6.47005 16.3461 6.42578C16.1794 6.38151 16.0193 6.35938 15.8656 6.35938C15.613 6.35938 15.4021 6.41536 15.2328 6.52734C15.0661 6.63932 14.9411 6.80599 14.8578 7.02734C14.7771 7.2487 14.7367 7.52344 14.7367 7.85156C14.7367 8.16927 14.7784 8.4375 14.8617 8.65625C14.9451 8.8724 15.0687 9.03646 15.2328 9.14844C15.3969 9.25781 15.5987 9.3125 15.8383 9.3125C16.0753 9.3125 16.2875 9.28385 16.475 9.22656C16.6625 9.16927 16.8396 9.09505 17.0062 9.00391V9.80078C16.8422 9.89453 16.6664 9.96354 16.4789 10.0078C16.2914 10.0547 16.0609 10.0781 15.7875 10.0781ZM19.8641 10.0781C19.4552 10.0781 19.101 9.9987 18.8016 9.83984C18.5021 9.68099 18.2716 9.4375 18.1102 9.10938C17.9487 8.78125 17.868 8.36458 17.868 7.85938C17.868 7.33333 17.9565 6.90365 18.1336 6.57031C18.3107 6.23698 18.5555 5.99089 18.868 5.83203C19.1831 5.67318 19.5437 5.59375 19.95 5.59375C20.2078 5.59375 20.4409 5.61979 20.6492 5.67188C20.8602 5.72135 21.0385 5.78255 21.1844 5.85547L20.9109 6.58984C20.7521 6.52474 20.5893 6.47005 20.4227 6.42578C20.256 6.38151 20.0958 6.35938 19.9422 6.35938C19.6896 6.35938 19.4786 6.41536 19.3094 6.52734C19.1427 6.63932 19.0177 6.80599 18.9344 7.02734C18.8536 7.2487 18.8133 7.52344 18.8133 7.85156C18.8133 8.16927 18.8549 8.4375 18.9383 8.65625C19.0216 8.8724 19.1453 9.03646 19.3094 9.14844C19.4734 9.25781 19.6753 9.3125 19.9148 9.3125C20.1518 9.3125 20.3641 9.28385 20.5516 9.22656C20.7391 9.16927 20.9161 9.09505 21.0828 9.00391V9.80078C20.9187 9.89453 20.743 9.96354 20.5555 10.0078C20.368 10.0547 20.1375 10.0781 19.8641 10.0781ZM23.9211 5.59375C24.3065 5.59375 24.6372 5.67318 24.9133 5.83203C25.1893 5.99089 25.4016 6.21615 25.55 6.50781C25.6984 6.79948 25.7727 7.14844 25.7727 7.55469V8.04688H22.8859C22.8964 8.46615 23.0083 8.78906 23.2219 9.01562C23.438 9.24219 23.7401 9.35547 24.1281 9.35547C24.4042 9.35547 24.6516 9.32943 24.8703 9.27734C25.0917 9.22266 25.3195 9.14323 25.5539 9.03906V9.78516C25.3378 9.88672 25.1177 9.96094 24.8938 10.0078C24.6698 10.0547 24.4016 10.0781 24.0891 10.0781C23.6646 10.0781 23.2909 9.99609 22.968 9.83203C22.6477 9.66536 22.3964 9.41797 22.2141 9.08984C22.0344 8.76172 21.9445 8.35417 21.9445 7.86719C21.9445 7.38281 22.0266 6.97135 22.1906 6.63281C22.3547 6.29427 22.5852 6.03646 22.882 5.85938C23.1789 5.68229 23.5253 5.59375 23.9211 5.59375ZM23.9211 6.28516C23.632 6.28516 23.3977 6.37891 23.218 6.56641C23.0409 6.75391 22.9367 7.02865 22.9055 7.39062H24.8742C24.8716 7.17448 24.8352 6.98307 24.7648 6.81641C24.6971 6.64974 24.593 6.51953 24.4523 6.42578C24.3143 6.33203 24.1372 6.28516 23.9211 6.28516ZM29.1266 5.59375C29.6396 5.59375 30.051 5.78125 30.3609 6.15625C30.6734 6.53125 30.8297 7.08854 30.8297 7.82812C30.8297 8.31771 30.7568 8.73047 30.6109 9.06641C30.4677 9.39974 30.2659 9.65234 30.0055 9.82422C29.7477 9.99349 29.4469 10.0781 29.1031 10.0781C28.8844 10.0781 28.6943 10.0495 28.5328 9.99219C28.3714 9.9349 28.2333 9.86068 28.1187 9.76953C28.0042 9.67578 27.9078 9.57422 27.8297 9.46484H27.775C27.788 9.56901 27.7997 9.6849 27.8102 9.8125C27.8232 9.9375 27.8297 10.0521 27.8297 10.1562V11.918H26.9078V5.67578H27.6578L27.7867 6.27344H27.8297C27.9104 6.15104 28.0081 6.03776 28.1227 5.93359C28.2398 5.82943 28.3805 5.7474 28.5445 5.6875C28.7112 5.625 28.9052 5.59375 29.1266 5.59375ZM28.8805 6.34375C28.6279 6.34375 28.4247 6.39453 28.2711 6.49609C28.1201 6.59505 28.0094 6.74479 27.9391 6.94531C27.8714 7.14583 27.8349 7.39714 27.8297 7.69922V7.82812C27.8297 8.14844 27.8622 8.42057 27.9273 8.64453C27.9951 8.86589 28.1057 9.03516 28.2594 9.15234C28.4156 9.26693 28.6266 9.32422 28.8922 9.32422C29.1161 9.32422 29.301 9.26302 29.4469 9.14062C29.5953 9.01823 29.706 8.84375 29.7789 8.61719C29.8518 8.39062 29.8883 8.1237 29.8883 7.81641C29.8883 7.35026 29.8049 6.98828 29.6383 6.73047C29.4742 6.47266 29.2216 6.34375 28.8805 6.34375ZM33.6016 9.33594C33.7214 9.33594 33.8398 9.32552 33.957 9.30469C34.0742 9.28125 34.181 9.25391 34.2773 9.22266V9.91797C34.1758 9.96224 34.0443 10 33.8828 10.0312C33.7214 10.0625 33.5534 10.0781 33.3789 10.0781C33.1341 10.0781 32.9141 10.0378 32.7188 9.95703C32.5234 9.8737 32.3685 9.73177 32.2539 9.53125C32.1393 9.33073 32.082 9.05339 32.082 8.69922V6.375H31.4922V5.96484L32.125 5.64062L32.4258 4.71484H33.0039V5.67578H34.2422V6.375H33.0039V8.6875C33.0039 8.90625 33.0586 9.06901 33.168 9.17578C33.2773 9.28255 33.4219 9.33594 33.6016 9.33594ZM36.9789 5.59375C37.3643 5.59375 37.6951 5.67318 37.9711 5.83203C38.2471 5.99089 38.4594 6.21615 38.6078 6.50781C38.7563 6.79948 38.8305 7.14844 38.8305 7.55469V8.04688H35.9438C35.9542 8.46615 36.0661 8.78906 36.2797 9.01562C36.4958 9.24219 36.7979 9.35547 37.1859 9.35547C37.462 9.35547 37.7094 9.32943 37.9281 9.27734C38.1495 9.22266 38.3773 9.14323 38.6117 9.03906V9.78516C38.3956 9.88672 38.1755 9.96094 37.9516 10.0078C37.7276 10.0547 37.4594 10.0781 37.1469 10.0781C36.7224 10.0781 36.3487 9.99609 36.0258 9.83203C35.7055 9.66536 35.4542 9.41797 35.2719 9.08984C35.0922 8.76172 35.0023 8.35417 35.0023 7.86719C35.0023 7.38281 35.0844 6.97135 35.2484 6.63281C35.4125 6.29427 35.643 6.03646 35.9398 5.85938C36.2367 5.68229 36.5831 5.59375 36.9789 5.59375ZM36.9789 6.28516C36.6898 6.28516 36.4555 6.37891 36.2758 6.56641C36.0987 6.75391 35.9945 7.02865 35.9633 7.39062H37.932C37.9294 7.17448 37.893 6.98307 37.8227 6.81641C37.7549 6.64974 37.6508 6.51953 37.5102 6.42578C37.3721 6.33203 37.1951 6.28516 36.9789 6.28516ZM41.4188 10.0781C40.9031 10.0781 40.4891 9.89062 40.1766 9.51562C39.8667 9.13802 39.7117 8.58203 39.7117 7.84766C39.7117 7.10547 39.8693 6.54427 40.1844 6.16406C40.5021 5.78385 40.9201 5.59375 41.4383 5.59375C41.657 5.59375 41.8484 5.6237 42.0125 5.68359C42.1766 5.74089 42.3172 5.81901 42.4344 5.91797C42.5542 6.01693 42.6557 6.1276 42.7391 6.25H42.782C42.769 6.16927 42.7534 6.05339 42.7352 5.90234C42.7195 5.7487 42.7117 5.60677 42.7117 5.47656V3.92188H43.6336V10H42.9148L42.7508 9.41016H42.7117C42.6336 9.53516 42.5346 9.64844 42.4148 9.75C42.2977 9.84896 42.157 9.92839 41.993 9.98828C41.8315 10.0482 41.6401 10.0781 41.4188 10.0781ZM41.6766 9.33203C42.0698 9.33203 42.3471 9.21875 42.5086 8.99219C42.6701 8.76562 42.7534 8.42578 42.7586 7.97266V7.85156C42.7586 7.36719 42.6805 6.99609 42.5242 6.73828C42.368 6.47786 42.0828 6.34766 41.6688 6.34766C41.338 6.34766 41.0854 6.48177 40.9109 6.75C40.7391 7.01562 40.6531 7.38672 40.6531 7.86328C40.6531 8.33984 40.7391 8.70443 40.9109 8.95703C41.0854 9.20703 41.3406 9.33203 41.6766 9.33203Z" fill="#7B61FF"/>
</svg>
