<svg width="30" height="25" viewBox="0 0 30 25" fill="none" xmlns="http://www.w3.org/2000/svg">
<path d="M29 21.3636C29 22.0387 28.7318 22.6862 28.2545 23.1635C27.7771 23.6409 27.1296 23.9091 26.4545 23.9091H3.54545C2.87036 23.9091 2.22291 23.6409 1.74555 23.1635C1.26818 22.6862 1 22.0387 1 21.3636V7.36364C1 6.68854 1.26818 6.04109 1.74555 5.56373C2.22291 5.08636 2.87036 4.81818 3.54545 4.81818H8.63636L11.1818 1H18.8182L21.3636 4.81818H26.4545C27.1296 4.81818 27.7771 5.08636 28.2545 5.56373C28.7318 6.04109 29 6.68854 29 7.36364V21.3636Z" stroke="#939393" stroke-width="1.52727" stroke-linecap="round" stroke-linejoin="round"/>
<path d="M15.0002 18.8183C17.8118 18.8183 20.0911 16.539 20.0911 13.7274C20.0911 10.9158 17.8118 8.63647 15.0002 8.63647C12.1886 8.63647 9.9093 10.9158 9.9093 13.7274C9.9093 16.539 12.1886 18.8183 15.0002 18.8183Z" stroke="#939393" stroke-width="1.52727" stroke-linecap="round" stroke-linejoin="round"/>
</svg>
