<svg width="63" height="14" viewBox="0 0 63 14" fill="none" xmlns="http://www.w3.org/2000/svg">
<rect x="0.25" y="0.25" width="62.5" height="13.5" rx="6.75" fill="#008B00" fill-opacity="0.1"/>
<rect x="0.25" y="0.25" width="62.5" height="13.5" rx="6.75" stroke="#008B00" stroke-width="0.5"/>
<path d="M13.3867 7.08984C13.3867 7.73307 13.2669 8.27083 13.0273 8.70312C12.7878 9.13281 12.4401 9.45703 11.9844 9.67578C11.5286 9.89193 10.9792 10 10.3359 10H8.75V4.28906H10.5078C11.099 4.28906 11.6094 4.39583 12.0391 4.60938C12.4688 4.82031 12.8008 5.13411 13.0352 5.55078C13.2695 5.96484 13.3867 6.47786 13.3867 7.08984ZM12.4102 7.11719C12.4102 6.64844 12.3359 6.26302 12.1875 5.96094C12.0417 5.65885 11.8255 5.4349 11.5391 5.28906C11.2552 5.14062 10.9049 5.06641 10.4883 5.06641H9.6875V9.21484H10.3516C11.0417 9.21484 11.5573 9.03906 11.8984 8.6875C12.2396 8.33594 12.4102 7.8125 12.4102 7.11719ZM16.3461 5.59375C16.7315 5.59375 17.0622 5.67318 17.3383 5.83203C17.6143 5.99089 17.8266 6.21615 17.975 6.50781C18.1234 6.79948 18.1977 7.14844 18.1977 7.55469V8.04688H15.3109C15.3214 8.46615 15.4333 8.78906 15.6469 9.01562C15.863 9.24219 16.1651 9.35547 16.5531 9.35547C16.8292 9.35547 17.0766 9.32943 17.2953 9.27734C17.5167 9.22266 17.7445 9.14323 17.9789 9.03906V9.78516C17.7628 9.88672 17.5427 9.96094 17.3187 10.0078C17.0948 10.0547 16.8266 10.0781 16.5141 10.0781C16.0896 10.0781 15.7159 9.99609 15.393 9.83203C15.0727 9.66536 14.8214 9.41797 14.6391 9.08984C14.4594 8.76172 14.3695 8.35417 14.3695 7.86719C14.3695 7.38281 14.4516 6.97135 14.6156 6.63281C14.7797 6.29427 15.0102 6.03646 15.307 5.85938C15.6039 5.68229 15.9503 5.59375 16.3461 5.59375ZM16.3461 6.28516C16.057 6.28516 15.8227 6.37891 15.643 6.56641C15.4659 6.75391 15.3617 7.02865 15.3305 7.39062H17.2992C17.2966 7.17448 17.2602 6.98307 17.1898 6.81641C17.1221 6.64974 17.018 6.51953 16.8773 6.42578C16.7393 6.33203 16.5622 6.28516 16.3461 6.28516ZM21.0281 5.59375C21.575 5.59375 21.9878 5.71484 22.2664 5.95703C22.5477 6.19922 22.6883 6.57682 22.6883 7.08984V10H22.0359L21.8602 9.38672H21.8289C21.7065 9.54297 21.5802 9.67188 21.45 9.77344C21.3198 9.875 21.1687 9.95052 20.9969 10C20.8276 10.0521 20.6206 10.0781 20.3758 10.0781C20.118 10.0781 19.8875 10.0312 19.6844 9.9375C19.4812 9.84115 19.3211 9.69531 19.2039 9.5C19.0867 9.30469 19.0281 9.05729 19.0281 8.75781C19.0281 8.3125 19.1935 7.97786 19.5242 7.75391C19.8576 7.52995 20.3602 7.40625 21.032 7.38281L21.782 7.35547V7.12891C21.782 6.82943 21.7117 6.61589 21.5711 6.48828C21.4331 6.36068 21.2378 6.29688 20.9852 6.29688C20.769 6.29688 20.5594 6.32812 20.3562 6.39062C20.1531 6.45312 19.9552 6.52995 19.7625 6.62109L19.4656 5.97266C19.6766 5.86068 19.9161 5.76953 20.1844 5.69922C20.4552 5.62891 20.7365 5.59375 21.0281 5.59375ZM21.7781 7.93359L21.2195 7.95312C20.7612 7.96875 20.4396 8.04688 20.2547 8.1875C20.0698 8.32812 19.9773 8.52083 19.9773 8.76562C19.9773 8.97917 20.0411 9.13542 20.1687 9.23438C20.2964 9.33073 20.4643 9.37891 20.6727 9.37891C20.9904 9.37891 21.2534 9.28906 21.4617 9.10938C21.6727 8.92708 21.7781 8.66016 21.7781 8.30859V7.93359ZM24.9953 10H24.0734V3.92188H24.9953V10ZM31.1133 5.00391C30.8398 5.00391 30.5951 5.05339 30.3789 5.15234C30.1654 5.2513 29.9844 5.39453 29.8359 5.58203C29.6875 5.76693 29.5742 5.99219 29.4961 6.25781C29.418 6.52083 29.3789 6.81771 29.3789 7.14844C29.3789 7.59115 29.4414 7.97266 29.5664 8.29297C29.6914 8.61068 29.8815 8.85547 30.1367 9.02734C30.3919 9.19661 30.7148 9.28125 31.1055 9.28125C31.3477 9.28125 31.5833 9.25781 31.8125 9.21094C32.0417 9.16406 32.2786 9.10026 32.5234 9.01953V9.81641C32.2917 9.90755 32.0573 9.97396 31.8203 10.0156C31.5833 10.0573 31.3099 10.0781 31 10.0781C30.4167 10.0781 29.9323 9.95703 29.5469 9.71484C29.1641 9.47266 28.8776 9.13151 28.6875 8.69141C28.5 8.2513 28.4062 7.73568 28.4062 7.14453C28.4062 6.71224 28.4661 6.31641 28.5859 5.95703C28.7057 5.59766 28.8802 5.28776 29.1094 5.02734C29.3385 4.76432 29.6211 4.5625 29.957 4.42188C30.2956 4.27865 30.6823 4.20703 31.1172 4.20703C31.4036 4.20703 31.6849 4.23958 31.9609 4.30469C32.2396 4.36719 32.4974 4.45703 32.7344 4.57422L32.4062 5.34766C32.2083 5.25391 32.0013 5.17318 31.7852 5.10547C31.569 5.03776 31.3451 5.00391 31.1133 5.00391ZM34.6781 10H33.7563V3.92188H34.6781V10ZM39.9188 7.82812C39.9188 8.1875 39.8719 8.50651 39.7781 8.78516C39.6844 9.0638 39.5477 9.29948 39.368 9.49219C39.1883 9.68229 38.9721 9.82812 38.7195 9.92969C38.4669 10.0286 38.1818 10.0781 37.8641 10.0781C37.5672 10.0781 37.2951 10.0286 37.0477 9.92969C36.8003 9.82812 36.5854 9.68229 36.4031 9.49219C36.2234 9.29948 36.0841 9.0638 35.9852 8.78516C35.8862 8.50651 35.8367 8.1875 35.8367 7.82812C35.8367 7.35156 35.9188 6.94792 36.0828 6.61719C36.2495 6.28385 36.4865 6.02995 36.7938 5.85547C37.101 5.68099 37.4669 5.59375 37.8914 5.59375C38.2898 5.59375 38.6414 5.68099 38.9461 5.85547C39.2508 6.02995 39.4891 6.28385 39.6609 6.61719C39.8328 6.95052 39.9188 7.35417 39.9188 7.82812ZM36.782 7.82812C36.782 8.14323 36.8198 8.41276 36.8953 8.63672C36.9734 8.86068 37.0932 9.03255 37.2547 9.15234C37.4161 9.26953 37.6245 9.32812 37.8797 9.32812C38.1349 9.32812 38.3432 9.26953 38.5047 9.15234C38.6661 9.03255 38.7846 8.86068 38.8602 8.63672C38.9357 8.41276 38.9734 8.14323 38.9734 7.82812C38.9734 7.51302 38.9357 7.24609 38.8602 7.02734C38.7846 6.80599 38.6661 6.63802 38.5047 6.52344C38.3432 6.40625 38.1336 6.34766 37.8758 6.34766C37.4956 6.34766 37.2182 6.47526 37.0438 6.73047C36.8693 6.98568 36.782 7.35156 36.782 7.82812ZM43.9797 8.76562C43.9797 9.04948 43.9107 9.28906 43.7727 9.48438C43.6346 9.67969 43.4328 9.82812 43.1672 9.92969C42.9042 10.0286 42.5812 10.0781 42.1984 10.0781C41.8964 10.0781 41.6359 10.056 41.4172 10.0117C41.201 9.97005 40.9966 9.90495 40.8039 9.81641V9.02344C41.0096 9.11979 41.2401 9.20312 41.4953 9.27344C41.7531 9.34375 41.9966 9.37891 42.2258 9.37891C42.5279 9.37891 42.7453 9.33203 42.8781 9.23828C43.0109 9.14193 43.0773 9.01432 43.0773 8.85547C43.0773 8.76172 43.05 8.67839 42.9953 8.60547C42.9432 8.52995 42.8443 8.45312 42.6984 8.375C42.5552 8.29427 42.3443 8.19792 42.0656 8.08594C41.7922 7.97656 41.5617 7.86719 41.3742 7.75781C41.1867 7.64844 41.0448 7.51693 40.9484 7.36328C40.8521 7.20703 40.8039 7.00781 40.8039 6.76562C40.8039 6.38281 40.9549 6.09245 41.257 5.89453C41.5617 5.69401 41.9641 5.59375 42.4641 5.59375C42.7297 5.59375 42.9797 5.62109 43.2141 5.67578C43.451 5.72786 43.6828 5.80469 43.9094 5.90625L43.6203 6.59766C43.425 6.51172 43.2284 6.44141 43.0305 6.38672C42.8352 6.32943 42.6359 6.30078 42.4328 6.30078C42.1958 6.30078 42.0148 6.33724 41.8898 6.41016C41.7674 6.48307 41.7062 6.58724 41.7062 6.72266C41.7062 6.82422 41.7362 6.91016 41.7961 6.98047C41.856 7.05078 41.9589 7.12109 42.1047 7.19141C42.2531 7.26172 42.4589 7.34896 42.7219 7.45312C42.9797 7.55208 43.2023 7.65625 43.3898 7.76562C43.5799 7.8724 43.7258 8.00391 43.8273 8.16016C43.9289 8.31641 43.9797 8.51823 43.9797 8.76562ZM46.7945 5.59375C47.1799 5.59375 47.5107 5.67318 47.7867 5.83203C48.0628 5.99089 48.275 6.21615 48.4234 6.50781C48.5719 6.79948 48.6461 7.14844 48.6461 7.55469V8.04688H45.7594C45.7698 8.46615 45.8818 8.78906 46.0953 9.01562C46.3115 9.24219 46.6135 9.35547 47.0016 9.35547C47.2776 9.35547 47.525 9.32943 47.7438 9.27734C47.9651 9.22266 48.193 9.14323 48.4273 9.03906V9.78516C48.2112 9.88672 47.9911 9.96094 47.7672 10.0078C47.5432 10.0547 47.275 10.0781 46.9625 10.0781C46.538 10.0781 46.1643 9.99609 45.8414 9.83203C45.5211 9.66536 45.2698 9.41797 45.0875 9.08984C44.9078 8.76172 44.818 8.35417 44.818 7.86719C44.818 7.38281 44.9 6.97135 45.0641 6.63281C45.2281 6.29427 45.4586 6.03646 45.7555 5.85938C46.0523 5.68229 46.3987 5.59375 46.7945 5.59375ZM46.7945 6.28516C46.5055 6.28516 46.2711 6.37891 46.0914 6.56641C45.9143 6.75391 45.8102 7.02865 45.7789 7.39062H47.7477C47.7451 7.17448 47.7086 6.98307 47.6383 6.81641C47.5706 6.64974 47.4664 6.51953 47.3258 6.42578C47.1878 6.33203 47.0107 6.28516 46.7945 6.28516ZM51.2344 10.0781C50.7188 10.0781 50.3047 9.89062 49.9922 9.51562C49.6823 9.13802 49.5273 8.58203 49.5273 7.84766C49.5273 7.10547 49.6849 6.54427 50 6.16406C50.3177 5.78385 50.7357 5.59375 51.2539 5.59375C51.4727 5.59375 51.6641 5.6237 51.8281 5.68359C51.9922 5.74089 52.1328 5.81901 52.25 5.91797C52.3698 6.01693 52.4714 6.1276 52.5547 6.25H52.5977C52.5846 6.16927 52.569 6.05339 52.5508 5.90234C52.5352 5.7487 52.5273 5.60677 52.5273 5.47656V3.92188H53.4492V10H52.7305L52.5664 9.41016H52.5273C52.4492 9.53516 52.3503 9.64844 52.2305 9.75C52.1133 9.84896 51.9727 9.92839 51.8086 9.98828C51.6471 10.0482 51.4557 10.0781 51.2344 10.0781ZM51.4922 9.33203C51.8854 9.33203 52.1628 9.21875 52.3242 8.99219C52.4857 8.76562 52.569 8.42578 52.5742 7.97266V7.85156C52.5742 7.36719 52.4961 6.99609 52.3398 6.73828C52.1836 6.47786 51.8984 6.34766 51.4844 6.34766C51.1536 6.34766 50.901 6.48177 50.7266 6.75C50.5547 7.01562 50.4688 7.38672 50.4688 7.86328C50.4688 8.33984 50.5547 8.70443 50.7266 8.95703C50.901 9.20703 51.1562 9.33203 51.4922 9.33203Z" fill="#008B00"/>
</svg>
