<svg width="20" height="20" viewBox="0 0 20 20" fill="none" xmlns="http://www.w3.org/2000/svg">
<g clip-path="url(#clip0_2414_1064)">
<path d="M17.4998 3.33333H14.9164C14.723 2.39284 14.2113 1.54779 13.4675 0.940598C12.7237 0.333408 11.7933 0.0012121 10.8331 0L9.16644 0C8.20627 0.0012121 7.27588 0.333408 6.53207 0.940598C5.78826 1.54779 5.27652 2.39284 5.08311 3.33333H2.49978C2.27876 3.33333 2.0668 3.42113 1.91052 3.57741C1.75424 3.73369 1.66644 3.94565 1.66644 4.16667C1.66644 4.38768 1.75424 4.59964 1.91052 4.75592C2.0668 4.9122 2.27876 5 2.49978 5H3.33311V15.8333C3.33443 16.938 3.77384 17.997 4.55496 18.7782C5.33607 19.5593 6.39511 19.9987 7.49978 20H12.4998C13.6044 19.9987 14.6635 19.5593 15.4446 18.7782C16.2257 17.997 16.6651 16.938 16.6664 15.8333V5H17.4998C17.7208 5 17.9328 4.9122 18.089 4.75592C18.2453 4.59964 18.3331 4.38768 18.3331 4.16667C18.3331 3.94565 18.2453 3.73369 18.089 3.57741C17.9328 3.42113 17.7208 3.33333 17.4998 3.33333ZM9.16644 1.66667H10.8331C11.35 1.6673 11.854 1.82781 12.2761 2.1262C12.6982 2.42459 13.0176 2.84624 13.1906 3.33333H6.80894C6.98193 2.84624 7.30136 2.42459 7.72343 2.1262C8.1455 1.82781 8.64955 1.6673 9.16644 1.66667ZM14.9998 15.8333C14.9998 16.4964 14.7364 17.1323 14.2675 17.6011C13.7987 18.0699 13.1628 18.3333 12.4998 18.3333H7.49978C6.83674 18.3333 6.20085 18.0699 5.73201 17.6011C5.26317 17.1323 4.99978 16.4964 4.99978 15.8333V5H14.9998V15.8333Z" fill="#4A4A4A"/>
<path d="M8.33333 15.0001C8.55434 15.0001 8.76631 14.9124 8.92259 14.7561C9.07887 14.5998 9.16666 14.3878 9.16666 14.1668V9.16683C9.16666 8.94581 9.07887 8.73385 8.92259 8.57757C8.76631 8.42129 8.55434 8.3335 8.33333 8.3335C8.11232 8.3335 7.90036 8.42129 7.74408 8.57757C7.5878 8.73385 7.5 8.94581 7.5 9.16683V14.1668C7.5 14.3878 7.5878 14.5998 7.74408 14.7561C7.90036 14.9124 8.11232 15.0001 8.33333 15.0001Z" fill="#4A4A4A"/>
<path d="M11.667 15.0001C11.888 15.0001 12.0999 14.9124 12.2562 14.7561C12.4125 14.5998 12.5003 14.3878 12.5003 14.1668V9.16683C12.5003 8.94581 12.4125 8.73385 12.2562 8.57757C12.0999 8.42129 11.888 8.3335 11.667 8.3335C11.4459 8.3335 11.234 8.42129 11.0777 8.57757C10.9214 8.73385 10.8336 8.94581 10.8336 9.16683V14.1668C10.8336 14.3878 10.9214 14.5998 11.0777 14.7561C11.234 14.9124 11.4459 15.0001 11.667 15.0001Z" fill="#4A4A4A"/>
</g>
<defs>
<clipPath id="clip0_2414_1064">
<rect width="20" height="20" fill="white"/>
</clipPath>
</defs>
</svg>
