<svg width="18" height="20" viewBox="0 0 18 20" fill="none" xmlns="http://www.w3.org/2000/svg">
<path d="M13.1663 11.6667C13.1663 11.8877 13.0785 12.0997 12.9222 12.2559C12.7659 12.4122 12.5539 12.5 12.3329 12.5H5.66626C5.44525 12.5 5.23328 12.4122 5.077 12.2559C4.92072 12.0997 4.83293 11.8877 4.83293 11.6667C4.83293 11.4457 4.92072 11.2337 5.077 11.0774C5.23328 10.9211 5.44525 10.8334 5.66626 10.8334H12.3329C12.5539 10.8334 12.7659 10.9211 12.9222 11.0774C13.0785 11.2337 13.1663 11.4457 13.1663 11.6667ZM9.83293 14.1667H5.66626C5.44525 14.1667 5.23328 14.2545 5.077 14.4108C4.92072 14.567 4.83293 14.779 4.83293 15C4.83293 15.221 4.92072 15.433 5.077 15.5893C5.23328 15.7456 5.44525 15.8334 5.66626 15.8334H9.83293C10.0539 15.8334 10.2659 15.7456 10.4222 15.5893C10.5785 15.433 10.6663 15.221 10.6663 15C10.6663 14.779 10.5785 14.567 10.4222 14.4108C10.2659 14.2545 10.0539 14.1667 9.83293 14.1667ZM17.3329 8.73752V15.8334C17.3316 16.938 16.8922 17.9971 16.1111 18.7782C15.33 19.5593 14.2709 19.9987 13.1663 20H4.83293C3.72826 19.9987 2.66922 19.5593 1.88811 18.7782C1.10699 17.9971 0.667583 16.938 0.66626 15.8334V4.16669C0.667583 3.06202 1.10699 2.00298 1.88811 1.22187C2.66922 0.440754 3.72826 0.00134242 4.83293 1.92072e-05H8.59543C9.36178 -0.00195323 10.1209 0.148009 10.8289 0.441235C11.537 0.734461 12.1799 1.16513 12.7204 1.70835L15.6238 4.61335C16.1673 5.15355 16.5982 5.79623 16.8916 6.50416C17.185 7.2121 17.335 7.9712 17.3329 8.73752ZM11.5421 2.88669C11.2798 2.63265 10.9854 2.41412 10.6663 2.23669V5.83335C10.6663 6.05437 10.7541 6.26633 10.9103 6.42261C11.0666 6.57889 11.2786 6.66669 11.4996 6.66669H15.0963C14.9187 6.34768 14.6999 6.05347 14.4454 5.79169L11.5421 2.88669ZM15.6663 8.73752C15.6663 8.60002 15.6396 8.46835 15.6271 8.33335H11.4996C10.8366 8.33335 10.2007 8.06996 9.73183 7.60112C9.26298 7.13228 8.99959 6.49639 8.99959 5.83335V1.70585C8.86459 1.69335 8.73209 1.66669 8.59543 1.66669H4.83293C4.16989 1.66669 3.534 1.93008 3.06516 2.39892C2.59632 2.86776 2.33293 3.50364 2.33293 4.16669V15.8334C2.33293 16.4964 2.59632 17.1323 3.06516 17.6011C3.534 18.07 4.16989 18.3334 4.83293 18.3334H13.1663C13.8293 18.3334 14.4652 18.07 14.934 17.6011C15.4029 17.1323 15.6663 16.4964 15.6663 15.8334V8.73752Z" fill="#4A4A4A"/>
</svg>
