<svg width="26" height="26" viewBox="0 0 26 26" fill="none" xmlns="http://www.w3.org/2000/svg">
<path d="M22.3333 1H3.66667C2.19391 1 1 2.19391 1 3.66667V22.3333C1 23.8061 2.19391 25 3.66667 25H22.3333C23.8061 25 25 23.8061 25 22.3333V3.66667C25 2.19391 23.8061 1 22.3333 1Z" stroke="#939393" stroke-width="1.5" stroke-linecap="round" stroke-linejoin="round"/>
<path d="M8.33398 10.3335C9.43855 10.3335 10.334 9.43807 10.334 8.3335C10.334 7.22893 9.43855 6.3335 8.33398 6.3335C7.22941 6.3335 6.33398 7.22893 6.33398 8.3335C6.33398 9.43807 7.22941 10.3335 8.33398 10.3335Z" stroke="#939393" stroke-width="1.5" stroke-linecap="round" stroke-linejoin="round"/>
<path d="M25.0003 16.9999L18.3337 10.3333L3.66699 24.9999" stroke="#939393" stroke-width="1.5" stroke-linecap="round" stroke-linejoin="round"/>
</svg>
