<svg width="57" height="14" viewBox="0 0 57 14" fill="none" xmlns="http://www.w3.org/2000/svg">
<rect x="0.25" y="0.25" width="56.5" height="13.5" rx="6.75" fill="#814411" fill-opacity="0.12"/>
<rect x="0.25" y="0.25" width="56.5" height="13.5" rx="6.75" stroke="#814411" stroke-width="0.5"/>
<path d="M8.75 10V4.28906H9.6875V10H8.75ZM13.4555 5.59375C13.9424 5.59375 14.3214 5.72005 14.5922 5.97266C14.8656 6.22266 15.0023 6.625 15.0023 7.17969V10H14.0844V7.35156C14.0844 7.01562 14.0154 6.76432 13.8773 6.59766C13.7393 6.42839 13.5258 6.34375 13.2367 6.34375C12.8174 6.34375 12.5258 6.47266 12.3617 6.73047C12.2003 6.98828 12.1195 7.36198 12.1195 7.85156V10H11.2016V5.67578H11.9164L12.0453 6.26172H12.0961C12.1898 6.11068 12.3057 5.98698 12.4437 5.89062C12.5844 5.79167 12.7406 5.71745 12.9125 5.66797C13.087 5.61849 13.268 5.59375 13.4555 5.59375ZM20.7844 5.59375C21.2974 5.59375 21.7089 5.78125 22.0188 6.15625C22.3313 6.53125 22.4875 7.08854 22.4875 7.82812C22.4875 8.31771 22.4146 8.73047 22.2688 9.06641C22.1255 9.39974 21.9237 9.65234 21.6633 9.82422C21.4055 9.99349 21.1047 10.0781 20.7609 10.0781C20.5422 10.0781 20.3521 10.0495 20.1906 9.99219C20.0292 9.9349 19.8911 9.86068 19.7766 9.76953C19.662 9.67578 19.5656 9.57422 19.4875 9.46484H19.4328C19.4458 9.56901 19.4576 9.6849 19.468 9.8125C19.481 9.9375 19.4875 10.0521 19.4875 10.1562V11.918H18.5656V5.67578H19.3156L19.4445 6.27344H19.4875C19.5682 6.15104 19.6659 6.03776 19.7805 5.93359C19.8977 5.82943 20.0383 5.7474 20.2023 5.6875C20.369 5.625 20.563 5.59375 20.7844 5.59375ZM20.5383 6.34375C20.2857 6.34375 20.0826 6.39453 19.9289 6.49609C19.7779 6.59505 19.6672 6.74479 19.5969 6.94531C19.5292 7.14583 19.4927 7.39714 19.4875 7.69922V7.82812C19.4875 8.14844 19.5201 8.42057 19.5852 8.64453C19.6529 8.86589 19.7635 9.03516 19.9172 9.15234C20.0734 9.26693 20.2844 9.32422 20.55 9.32422C20.774 9.32422 20.9589 9.26302 21.1047 9.14062C21.2531 9.01823 21.3638 8.84375 21.4367 8.61719C21.5096 8.39062 21.5461 8.1237 21.5461 7.81641C21.5461 7.35026 21.4628 6.98828 21.2961 6.73047C21.132 6.47266 20.8794 6.34375 20.5383 6.34375ZM25.8414 5.59375C25.9143 5.59375 25.9937 5.59766 26.0797 5.60547C26.1656 5.61328 26.2398 5.6237 26.3023 5.63672L26.2164 6.49609C26.1617 6.48047 26.094 6.46875 26.0133 6.46094C25.9352 6.45312 25.8648 6.44922 25.8023 6.44922C25.6383 6.44922 25.482 6.47656 25.3336 6.53125C25.1852 6.58333 25.0536 6.66406 24.9391 6.77344C24.8245 6.88021 24.7346 7.01432 24.6695 7.17578C24.6044 7.33724 24.5719 7.52474 24.5719 7.73828V10H23.65V5.67578H24.3687L24.4937 6.4375H24.5367C24.6227 6.28385 24.7294 6.14323 24.857 6.01562C24.9846 5.88802 25.1305 5.78646 25.2945 5.71094C25.4612 5.63281 25.6435 5.59375 25.8414 5.59375ZM31.0312 7.82812C31.0312 8.1875 30.9844 8.50651 30.8906 8.78516C30.7969 9.0638 30.6602 9.29948 30.4805 9.49219C30.3008 9.68229 30.0846 9.82812 29.832 9.92969C29.5794 10.0286 29.2943 10.0781 28.9766 10.0781C28.6797 10.0781 28.4076 10.0286 28.1602 9.92969C27.9128 9.82812 27.6979 9.68229 27.5156 9.49219C27.3359 9.29948 27.1966 9.0638 27.0977 8.78516C26.9987 8.50651 26.9492 8.1875 26.9492 7.82812C26.9492 7.35156 27.0312 6.94792 27.1953 6.61719C27.362 6.28385 27.599 6.02995 27.9062 5.85547C28.2135 5.68099 28.5794 5.59375 29.0039 5.59375C29.4023 5.59375 29.7539 5.68099 30.0586 5.85547C30.3633 6.02995 30.6016 6.28385 30.7734 6.61719C30.9453 6.95052 31.0312 7.35417 31.0312 7.82812ZM27.8945 7.82812C27.8945 8.14323 27.9323 8.41276 28.0078 8.63672C28.0859 8.86068 28.2057 9.03255 28.3672 9.15234C28.5286 9.26953 28.737 9.32812 28.9922 9.32812C29.2474 9.32812 29.4557 9.26953 29.6172 9.15234C29.7786 9.03255 29.8971 8.86068 29.9727 8.63672C30.0482 8.41276 30.0859 8.14323 30.0859 7.82812C30.0859 7.51302 30.0482 7.24609 29.9727 7.02734C29.8971 6.80599 29.7786 6.63802 29.6172 6.52344C29.4557 6.40625 29.2461 6.34766 28.9883 6.34766C28.6081 6.34766 28.3307 6.47526 28.1562 6.73047C27.9818 6.98568 27.8945 7.35156 27.8945 7.82812ZM33.9281 10.0781C33.5193 10.0781 33.1651 9.9987 32.8656 9.83984C32.5661 9.68099 32.3357 9.4375 32.1742 9.10938C32.0128 8.78125 31.932 8.36458 31.932 7.85938C31.932 7.33333 32.0206 6.90365 32.1977 6.57031C32.3747 6.23698 32.6195 5.99089 32.932 5.83203C33.2471 5.67318 33.6078 5.59375 34.0141 5.59375C34.2719 5.59375 34.5049 5.61979 34.7133 5.67188C34.9242 5.72135 35.1026 5.78255 35.2484 5.85547L34.975 6.58984C34.8161 6.52474 34.6534 6.47005 34.4867 6.42578C34.3201 6.38151 34.1599 6.35938 34.0063 6.35938C33.7536 6.35938 33.5427 6.41536 33.3734 6.52734C33.2068 6.63932 33.0818 6.80599 32.9984 7.02734C32.9177 7.2487 32.8773 7.52344 32.8773 7.85156C32.8773 8.16927 32.919 8.4375 33.0023 8.65625C33.0857 8.8724 33.2094 9.03646 33.3734 9.14844C33.5375 9.25781 33.7393 9.3125 33.9789 9.3125C34.2159 9.3125 34.4281 9.28385 34.6156 9.22656C34.8031 9.16927 34.9802 9.09505 35.1469 9.00391V9.80078C34.9828 9.89453 34.807 9.96354 34.6195 10.0078C34.432 10.0547 34.2016 10.0781 33.9281 10.0781ZM37.9852 5.59375C38.3706 5.59375 38.7013 5.67318 38.9773 5.83203C39.2534 5.99089 39.4656 6.21615 39.6141 6.50781C39.7625 6.79948 39.8367 7.14844 39.8367 7.55469V8.04688H36.95C36.9604 8.46615 37.0724 8.78906 37.2859 9.01562C37.5021 9.24219 37.8042 9.35547 38.1922 9.35547C38.4682 9.35547 38.7156 9.32943 38.9344 9.27734C39.1557 9.22266 39.3836 9.14323 39.618 9.03906V9.78516C39.4018 9.88672 39.1818 9.96094 38.9578 10.0078C38.7339 10.0547 38.4656 10.0781 38.1531 10.0781C37.7286 10.0781 37.3549 9.99609 37.032 9.83203C36.7117 9.66536 36.4604 9.41797 36.2781 9.08984C36.0984 8.76172 36.0086 8.35417 36.0086 7.86719C36.0086 7.38281 36.0906 6.97135 36.2547 6.63281C36.4188 6.29427 36.6492 6.03646 36.9461 5.85938C37.243 5.68229 37.5893 5.59375 37.9852 5.59375ZM37.9852 6.28516C37.6961 6.28516 37.4617 6.37891 37.282 6.56641C37.1049 6.75391 37.0008 7.02865 36.9695 7.39062H38.9383C38.9357 7.17448 38.8992 6.98307 38.8289 6.81641C38.7612 6.64974 38.657 6.51953 38.5164 6.42578C38.3784 6.33203 38.2013 6.28516 37.9852 6.28516ZM43.8781 8.76562C43.8781 9.04948 43.8091 9.28906 43.6711 9.48438C43.5331 9.67969 43.3312 9.82812 43.0656 9.92969C42.8026 10.0286 42.4797 10.0781 42.0969 10.0781C41.7948 10.0781 41.5344 10.056 41.3156 10.0117C41.0995 9.97005 40.8951 9.90495 40.7023 9.81641V9.02344C40.9081 9.11979 41.1385 9.20312 41.3937 9.27344C41.6516 9.34375 41.8951 9.37891 42.1242 9.37891C42.4263 9.37891 42.6437 9.33203 42.7766 9.23828C42.9094 9.14193 42.9758 9.01432 42.9758 8.85547C42.9758 8.76172 42.9484 8.67839 42.8937 8.60547C42.8417 8.52995 42.7427 8.45312 42.5969 8.375C42.4536 8.29427 42.2427 8.19792 41.9641 8.08594C41.6906 7.97656 41.4602 7.86719 41.2727 7.75781C41.0852 7.64844 40.9432 7.51693 40.8469 7.36328C40.7505 7.20703 40.7023 7.00781 40.7023 6.76562C40.7023 6.38281 40.8534 6.09245 41.1555 5.89453C41.4602 5.69401 41.8625 5.59375 42.3625 5.59375C42.6281 5.59375 42.8781 5.62109 43.1125 5.67578C43.3495 5.72786 43.5812 5.80469 43.8078 5.90625L43.5187 6.59766C43.3234 6.51172 43.1268 6.44141 42.9289 6.38672C42.7336 6.32943 42.5344 6.30078 42.3312 6.30078C42.0943 6.30078 41.9133 6.33724 41.7883 6.41016C41.6659 6.48307 41.6047 6.58724 41.6047 6.72266C41.6047 6.82422 41.6346 6.91016 41.6945 6.98047C41.7544 7.05078 41.8573 7.12109 42.0031 7.19141C42.1516 7.26172 42.3573 7.34896 42.6203 7.45312C42.8781 7.55208 43.1008 7.65625 43.2883 7.76562C43.4784 7.8724 43.6242 8.00391 43.7258 8.16016C43.8273 8.31641 43.8781 8.51823 43.8781 8.76562ZM47.8766 8.76562C47.8766 9.04948 47.8076 9.28906 47.6695 9.48438C47.5315 9.67969 47.3297 9.82812 47.0641 9.92969C46.801 10.0286 46.4781 10.0781 46.0953 10.0781C45.7932 10.0781 45.5328 10.056 45.3141 10.0117C45.0979 9.97005 44.8935 9.90495 44.7008 9.81641V9.02344C44.9065 9.11979 45.137 9.20312 45.3922 9.27344C45.65 9.34375 45.8935 9.37891 46.1227 9.37891C46.4247 9.37891 46.6422 9.33203 46.775 9.23828C46.9078 9.14193 46.9742 9.01432 46.9742 8.85547C46.9742 8.76172 46.9469 8.67839 46.8922 8.60547C46.8401 8.52995 46.7411 8.45312 46.5953 8.375C46.4521 8.29427 46.2411 8.19792 45.9625 8.08594C45.6891 7.97656 45.4586 7.86719 45.2711 7.75781C45.0836 7.64844 44.9417 7.51693 44.8453 7.36328C44.749 7.20703 44.7008 7.00781 44.7008 6.76562C44.7008 6.38281 44.8518 6.09245 45.1539 5.89453C45.4586 5.69401 45.8609 5.59375 46.3609 5.59375C46.6266 5.59375 46.8766 5.62109 47.1109 5.67578C47.3479 5.72786 47.5797 5.80469 47.8063 5.90625L47.5172 6.59766C47.3219 6.51172 47.1253 6.44141 46.9273 6.38672C46.732 6.32943 46.5328 6.30078 46.3297 6.30078C46.0927 6.30078 45.9117 6.33724 45.7867 6.41016C45.6643 6.48307 45.6031 6.58724 45.6031 6.72266C45.6031 6.82422 45.6331 6.91016 45.693 6.98047C45.7529 7.05078 45.8557 7.12109 46.0016 7.19141C46.15 7.26172 46.3557 7.34896 46.6188 7.45312C46.8766 7.55208 47.0992 7.65625 47.2867 7.76562C47.4768 7.8724 47.6227 8.00391 47.7242 8.16016C47.8258 8.31641 47.8766 8.51823 47.8766 8.76562Z" fill="#814411"/>
</svg>
