<svg width="34" height="14" viewBox="0 0 34 14" fill="none" xmlns="http://www.w3.org/2000/svg">
<rect x="0.25" y="0.25" width="33.5" height="13.5" rx="6.75" fill="#FC8019" fill-opacity="0.12"/>
<rect x="0.25" y="0.25" width="33.5" height="13.5" rx="6.75" stroke="#FC8019" stroke-width="0.5"/>
<path d="M13.5156 10H12.3633L9.56641 5.44141H9.53125C9.54167 5.59505 9.55078 5.75781 9.55859 5.92969C9.56901 6.10156 9.57682 6.27865 9.58203 6.46094C9.58984 6.64323 9.59635 6.82812 9.60156 7.01562V10H8.75V4.28906H9.89453L12.6875 8.81641H12.7148C12.7096 8.68359 12.7031 8.53125 12.6953 8.35938C12.6875 8.1875 12.6797 8.01042 12.6719 7.82812C12.6667 7.64323 12.6628 7.46484 12.6602 7.29297V4.28906H13.5156V10ZM16.7445 5.59375C17.1299 5.59375 17.4607 5.67318 17.7367 5.83203C18.0128 5.99089 18.225 6.21615 18.3734 6.50781C18.5219 6.79948 18.5961 7.14844 18.5961 7.55469V8.04688H15.7094C15.7198 8.46615 15.8318 8.78906 16.0453 9.01562C16.2615 9.24219 16.5635 9.35547 16.9516 9.35547C17.2276 9.35547 17.475 9.32943 17.6937 9.27734C17.9151 9.22266 18.143 9.14323 18.3773 9.03906V9.78516C18.1612 9.88672 17.9411 9.96094 17.7172 10.0078C17.4932 10.0547 17.225 10.0781 16.9125 10.0781C16.488 10.0781 16.1143 9.99609 15.7914 9.83203C15.4711 9.66536 15.2198 9.41797 15.0375 9.08984C14.8578 8.76172 14.768 8.35417 14.768 7.86719C14.768 7.38281 14.85 6.97135 15.0141 6.63281C15.1781 6.29427 15.4086 6.03646 15.7055 5.85938C16.0023 5.68229 16.3487 5.59375 16.7445 5.59375ZM16.7445 6.28516C16.4555 6.28516 16.2211 6.37891 16.0414 6.56641C15.8643 6.75391 15.7602 7.02865 15.7289 7.39062H17.6977C17.6951 7.17448 17.6586 6.98307 17.5883 6.81641C17.5206 6.64974 17.4164 6.51953 17.2758 6.42578C17.1378 6.33203 16.9607 6.28516 16.7445 6.28516ZM23.2664 9.99609L22.7195 7.98438C22.6935 7.88542 22.6622 7.76562 22.6258 7.625C22.5893 7.48438 22.5529 7.33984 22.5164 7.19141C22.4799 7.04036 22.4461 6.90104 22.4148 6.77344C22.3862 6.64583 22.3641 6.54688 22.3484 6.47656H22.3172C22.3042 6.54688 22.2833 6.64583 22.2547 6.77344C22.226 6.90104 22.1935 7.04036 22.157 7.19141C22.1206 7.34245 22.0841 7.48958 22.0477 7.63281C22.0138 7.77604 21.9826 7.89844 21.9539 8L21.3797 9.99609H20.3719L19.1609 5.67188H20.0906L20.6531 7.82031C20.6896 7.96615 20.7247 8.1237 20.7586 8.29297C20.7951 8.46224 20.8263 8.6237 20.8523 8.77734C20.8784 8.93099 20.8979 9.05729 20.9109 9.15625H20.9422C20.9526 9.08594 20.9669 8.9974 20.9852 8.89062C21.0034 8.78125 21.0242 8.66797 21.0477 8.55078C21.0711 8.43099 21.0945 8.31901 21.118 8.21484C21.1414 8.10807 21.1635 8.02214 21.1844 7.95703L21.8484 5.67188H22.8523L23.4891 7.95703C23.5177 8.05599 23.549 8.18099 23.5828 8.33203C23.6167 8.48047 23.6466 8.63021 23.6727 8.78125C23.7013 8.92969 23.7195 9.05339 23.7273 9.15234H23.7586C23.769 9.0638 23.7872 8.94401 23.8133 8.79297C23.8419 8.63932 23.8745 8.47656 23.9109 8.30469C23.9474 8.13021 23.9852 7.96875 24.0242 7.82031L24.5984 5.67188H25.5125L24.2937 9.99609H23.2664Z" fill="#FC8019"/>
</svg>
