<svg width="50" height="14" viewBox="0 0 50 14" fill="none" xmlns="http://www.w3.org/2000/svg">
<rect x="0.25" y="0.25" width="49.5" height="13.5" rx="6.75" fill="#C11F1F" fill-opacity="0.1"/>
<rect x="0.25" y="0.25" width="49.5" height="13.5" rx="6.75" stroke="#C11F1F" stroke-width="0.5"/>
<path d="M10.3555 4.28906C10.8477 4.28906 11.2539 4.34896 11.5742 4.46875C11.8971 4.58854 12.1367 4.77083 12.293 5.01562C12.4518 5.26042 12.5312 5.57161 12.5312 5.94922C12.5312 6.23047 12.4792 6.47005 12.375 6.66797C12.2708 6.86589 12.1341 7.02995 11.9648 7.16016C11.7956 7.29036 11.6146 7.39453 11.4219 7.47266L13.043 10H11.9844L10.6055 7.71094H9.6875V10H8.75V4.28906H10.3555ZM10.293 5.07031H9.6875V6.9375H10.3359C10.7708 6.9375 11.0859 6.85677 11.2812 6.69531C11.4792 6.53385 11.5781 6.29557 11.5781 5.98047C11.5781 5.64974 11.4727 5.41536 11.2617 5.27734C11.0534 5.13932 10.7305 5.07031 10.293 5.07031ZM15.5883 5.59375C15.9737 5.59375 16.3044 5.67318 16.5805 5.83203C16.8565 5.99089 17.0687 6.21615 17.2172 6.50781C17.3656 6.79948 17.4398 7.14844 17.4398 7.55469V8.04688H14.5531C14.5635 8.46615 14.6755 8.78906 14.8891 9.01562C15.1052 9.24219 15.4073 9.35547 15.7953 9.35547C16.0714 9.35547 16.3187 9.32943 16.5375 9.27734C16.7589 9.22266 16.9867 9.14323 17.2211 9.03906V9.78516C17.0049 9.88672 16.7849 9.96094 16.5609 10.0078C16.337 10.0547 16.0687 10.0781 15.7562 10.0781C15.3318 10.0781 14.9581 9.99609 14.6352 9.83203C14.3148 9.66536 14.0635 9.41797 13.8812 9.08984C13.7016 8.76172 13.6117 8.35417 13.6117 7.86719C13.6117 7.38281 13.6937 6.97135 13.8578 6.63281C14.0219 6.29427 14.2523 6.03646 14.5492 5.85938C14.8461 5.68229 15.1924 5.59375 15.5883 5.59375ZM15.5883 6.28516C15.2992 6.28516 15.0648 6.37891 14.8852 6.56641C14.7081 6.75391 14.6039 7.02865 14.5727 7.39062H16.5414C16.5388 7.17448 16.5023 6.98307 16.432 6.81641C16.3643 6.64974 16.2602 6.51953 16.1195 6.42578C15.9815 6.33203 15.8044 6.28516 15.5883 6.28516ZM18.1414 11.9219C18.006 11.9219 17.8771 11.9115 17.7547 11.8906C17.6323 11.8724 17.5294 11.8503 17.4461 11.8242V11.0898C17.5346 11.1159 17.6206 11.1354 17.7039 11.1484C17.7872 11.1615 17.8823 11.168 17.9891 11.168C18.1583 11.168 18.2977 11.1211 18.407 11.0273C18.519 10.9336 18.575 10.7552 18.575 10.4922V5.67578H19.493V10.5742C19.493 10.8372 19.4461 11.0703 19.3523 11.2734C19.2612 11.4766 19.1154 11.6354 18.9148 11.75C18.7169 11.8646 18.4591 11.9219 18.1414 11.9219ZM18.5203 4.52344C18.5203 4.33854 18.5698 4.20833 18.6687 4.13281C18.7703 4.05729 18.894 4.01953 19.0398 4.01953C19.1805 4.01953 19.3016 4.05729 19.4031 4.13281C19.5073 4.20833 19.5594 4.33854 19.5594 4.52344C19.5594 4.70573 19.5073 4.83594 19.4031 4.91406C19.3016 4.98958 19.1805 5.02734 19.0398 5.02734C18.894 5.02734 18.7703 4.98958 18.6687 4.91406C18.5698 4.83594 18.5203 4.70573 18.5203 4.52344ZM22.632 5.59375C23.0174 5.59375 23.3482 5.67318 23.6242 5.83203C23.9003 5.99089 24.1125 6.21615 24.2609 6.50781C24.4094 6.79948 24.4836 7.14844 24.4836 7.55469V8.04688H21.5969C21.6073 8.46615 21.7193 8.78906 21.9328 9.01562C22.149 9.24219 22.451 9.35547 22.8391 9.35547C23.1151 9.35547 23.3625 9.32943 23.5813 9.27734C23.8026 9.22266 24.0305 9.14323 24.2648 9.03906V9.78516C24.0487 9.88672 23.8286 9.96094 23.6047 10.0078C23.3807 10.0547 23.1125 10.0781 22.8 10.0781C22.3755 10.0781 22.0018 9.99609 21.6789 9.83203C21.3586 9.66536 21.1073 9.41797 20.925 9.08984C20.7453 8.76172 20.6555 8.35417 20.6555 7.86719C20.6555 7.38281 20.7375 6.97135 20.9016 6.63281C21.0656 6.29427 21.2961 6.03646 21.593 5.85938C21.8898 5.68229 22.2362 5.59375 22.632 5.59375ZM22.632 6.28516C22.343 6.28516 22.1086 6.37891 21.9289 6.56641C21.7518 6.75391 21.6477 7.02865 21.6164 7.39062H23.5852C23.5826 7.17448 23.5461 6.98307 23.4758 6.81641C23.4081 6.64974 23.3039 6.51953 23.1633 6.42578C23.0253 6.33203 22.8482 6.28516 22.632 6.28516ZM27.3609 10.0781C26.9521 10.0781 26.5979 9.9987 26.2984 9.83984C25.999 9.68099 25.7685 9.4375 25.607 9.10938C25.4456 8.78125 25.3648 8.36458 25.3648 7.85938C25.3648 7.33333 25.4534 6.90365 25.6305 6.57031C25.8076 6.23698 26.0523 5.99089 26.3648 5.83203C26.6799 5.67318 27.0406 5.59375 27.4469 5.59375C27.7047 5.59375 27.9378 5.61979 28.1461 5.67188C28.357 5.72135 28.5354 5.78255 28.6812 5.85547L28.4078 6.58984C28.249 6.52474 28.0862 6.47005 27.9195 6.42578C27.7529 6.38151 27.5927 6.35938 27.4391 6.35938C27.1865 6.35938 26.9755 6.41536 26.8062 6.52734C26.6396 6.63932 26.5146 6.80599 26.4312 7.02734C26.3505 7.2487 26.3102 7.52344 26.3102 7.85156C26.3102 8.16927 26.3518 8.4375 26.4352 8.65625C26.5185 8.8724 26.6422 9.03646 26.8062 9.14844C26.9703 9.25781 27.1721 9.3125 27.4117 9.3125C27.6487 9.3125 27.8609 9.28385 28.0484 9.22656C28.2359 9.16927 28.413 9.09505 28.5797 9.00391V9.80078C28.4156 9.89453 28.2398 9.96354 28.0523 10.0078C27.8648 10.0547 27.6344 10.0781 27.3609 10.0781ZM31.3047 9.33594C31.4245 9.33594 31.543 9.32552 31.6602 9.30469C31.7773 9.28125 31.8841 9.25391 31.9805 9.22266V9.91797C31.8789 9.96224 31.7474 10 31.5859 10.0312C31.4245 10.0625 31.2565 10.0781 31.082 10.0781C30.8372 10.0781 30.6172 10.0378 30.4219 9.95703C30.2266 9.8737 30.0716 9.73177 29.957 9.53125C29.8424 9.33073 29.7852 9.05339 29.7852 8.69922V6.375H29.1953V5.96484L29.8281 5.64062L30.1289 4.71484H30.707V5.67578H31.9453V6.375H30.707V8.6875C30.707 8.90625 30.7617 9.06901 30.8711 9.17578C30.9805 9.28255 31.125 9.33594 31.3047 9.33594ZM34.682 5.59375C35.0674 5.59375 35.3982 5.67318 35.6742 5.83203C35.9503 5.99089 36.1625 6.21615 36.3109 6.50781C36.4594 6.79948 36.5336 7.14844 36.5336 7.55469V8.04688H33.6469C33.6573 8.46615 33.7693 8.78906 33.9828 9.01562C34.199 9.24219 34.501 9.35547 34.8891 9.35547C35.1651 9.35547 35.4125 9.32943 35.6313 9.27734C35.8526 9.22266 36.0805 9.14323 36.3148 9.03906V9.78516C36.0987 9.88672 35.8786 9.96094 35.6547 10.0078C35.4307 10.0547 35.1625 10.0781 34.85 10.0781C34.4255 10.0781 34.0518 9.99609 33.7289 9.83203C33.4086 9.66536 33.1573 9.41797 32.975 9.08984C32.7953 8.76172 32.7055 8.35417 32.7055 7.86719C32.7055 7.38281 32.7875 6.97135 32.9516 6.63281C33.1156 6.29427 33.3461 6.03646 33.643 5.85938C33.9398 5.68229 34.2862 5.59375 34.682 5.59375ZM34.682 6.28516C34.393 6.28516 34.1586 6.37891 33.9789 6.56641C33.8018 6.75391 33.6977 7.02865 33.6664 7.39062H35.6352C35.6326 7.17448 35.5961 6.98307 35.5258 6.81641C35.4581 6.64974 35.3539 6.51953 35.2133 6.42578C35.0753 6.33203 34.8982 6.28516 34.682 6.28516ZM39.1219 10.0781C38.6063 10.0781 38.1922 9.89062 37.8797 9.51562C37.5698 9.13802 37.4148 8.58203 37.4148 7.84766C37.4148 7.10547 37.5724 6.54427 37.8875 6.16406C38.2052 5.78385 38.6232 5.59375 39.1414 5.59375C39.3602 5.59375 39.5516 5.6237 39.7156 5.68359C39.8797 5.74089 40.0203 5.81901 40.1375 5.91797C40.2573 6.01693 40.3589 6.1276 40.4422 6.25H40.4852C40.4721 6.16927 40.4565 6.05339 40.4383 5.90234C40.4227 5.7487 40.4148 5.60677 40.4148 5.47656V3.92188H41.3367V10H40.618L40.4539 9.41016H40.4148C40.3367 9.53516 40.2378 9.64844 40.118 9.75C40.0008 9.84896 39.8602 9.92839 39.6961 9.98828C39.5346 10.0482 39.3432 10.0781 39.1219 10.0781ZM39.3797 9.33203C39.7729 9.33203 40.0503 9.21875 40.2117 8.99219C40.3732 8.76562 40.4565 8.42578 40.4617 7.97266V7.85156C40.4617 7.36719 40.3836 6.99609 40.2273 6.73828C40.0711 6.47786 39.7859 6.34766 39.3719 6.34766C39.0411 6.34766 38.7885 6.48177 38.6141 6.75C38.4422 7.01562 38.3563 7.38672 38.3563 7.86328C38.3563 8.33984 38.4422 8.70443 38.6141 8.95703C38.7885 9.20703 39.0438 9.33203 39.3797 9.33203Z" fill="#C11F1F"/>
</svg>
